<!DOCTYPE svg PUBLIC "-//W3C//DTD SVG 20010904//EN" "http://www.w3.org/TR/2001/REC-SVG-20010904/DTD/svg10.dtd">
<svg version="1.0" xmlns="http://www.w3.org/2000/svg" width="806px" height="396px" viewBox="0 0 8060 3960" preserveAspectRatio="xMidYMid meet">
<g id="layer101" fill="#323330" stroke="none">
 <path d="M0 1980 l0 -1980 4030 0 4030 0 0 1980 0 1980 -4030 0 -4030 0 0 -1980z"/>
 </g>
<g id="layer102" fill="#00ffee" stroke="none">
 <path d="M0 1980 l0 -1980 4030 0 4030 0 0 1980 0 1980 -4030 0 -4030 0 0 -1980z m3795 669 c44 -11 90 -23 103 -26 21 -5 22 -9 22 -129 0 -68 -1 -124 -2 -124 -2 0 -52 16 -113 36 -218 70 -384 55 -476 -43 -50 -53 -84 -117 -105 -196 -50 -188 50 -409 209 -463 102 -35 273 -12 423 56 l64 29 0 -125 c0 -144 14 -126 -133 -166 -67 -18 -110 -22 -232 -22 -140 -1 -155 1 -225 27 -129 47 -256 162 -322 290 -58 115 -75 309 -38 452 52 204 215 369 416 420 86 21 303 13 409 -16z m-1015 -99 l0 -120 -335 -167 c-184 -93 -335 -170 -335 -173 0 -3 151 -80 335 -173 l335 -167 0 -120 0 -120 -575 287 c-316 159 -575 290 -575 293 0 4 1134 576 1148 579 1 1 2 -53 2 -119z m3630 -460 c0 -3 -259 -134 -575 -293 l-575 -287 0 120 0 120 335 167 c184 93 335 170 335 173 0 3 -151 80 -335 173 l-335 167 0 120 0 120 575 -287 c316 -159 575 -290 575 -293z m-1976 508 c8 -29 50 -189 92 -355 43 -167 81 -303 84 -303 3 0 53 159 111 353 l104 352 112 3 c110 3 113 2 118 -20 3 -13 43 -261 90 -553 47 -291 87 -540 90 -552 5 -23 4 -23 -100 -23 -58 0 -105 2 -105 5 0 8 -100 640 -103 649 -2 4 -40 -119 -86 -275 -46 -156 -90 -305 -98 -331 l-14 -48 -108 0 -108 0 -62 238 c-96 367 -108 408 -114 392 -5 -14 -97 -606 -97 -622 0 -5 -54 -8 -120 -8 -120 0 -120 0 -115 23 2 12 43 261 90 552 47 292 87 540 90 553 5 21 9 22 119 22 l115 0 15 -52z"/>
 </g>
<g id="layer103" fill="#ffffff" stroke="none">
 <path d="M0 1980 l0 -1980 4030 0 4030 0 0 1980 0 1980 -4030 0 -4030 0 0 -1980z m6621 1324 c62 -32 59 31 59 -1285 0 -1331 4 -1251 -65 -1283 -30 -14 -275 -16 -2504 -16 -2114 0 -2477 2 -2506 14 -70 30 -66 -59 -63 1300 3 1208 3 1224 23 1246 11 12 29 26 40 31 11 4 1137 8 2503 8 2235 1 2486 -1 2513 -15z"/>
 </g>

</svg>